<svg width="127" height="32" viewBox="0 0 127 32" fill="none" xmlns="http://www.w3.org/2000/svg">
<g clip-path="url(#clip0_1429_20908)">
<path d="M11.6357 10.1817C11.6357 4.55848 16.1942 0 21.8174 0C27.4405 0 31.999 4.55848 31.999 10.1817V11.6362C31.999 13.2428 30.6965 14.5452 29.0899 14.5452C27.4833 14.5452 26.1809 13.2428 26.1809 11.6362V10.1817C26.1809 7.77172 24.2273 5.81809 21.8174 5.81809C19.4074 5.81809 17.4538 7.77172 17.4538 10.1817V14.5452C17.4538 16.1518 16.1514 17.4543 14.5448 17.4543C12.9382 17.4543 11.6357 16.1518 11.6357 14.5452V10.1817Z" fill="#14F0C8"></path>
<path d="M10.1816 32C4.55846 32 2.70377e-07 27.4415 0 21.8184C-2.70377e-07 16.1952 4.55846 11.6367 10.1816 11.6367H14.5451C16.1518 11.6367 17.4542 12.9391 17.4542 14.5457C17.4542 16.1524 16.1518 17.4548 14.5451 17.4548H10.1816C7.77169 17.4548 5.81806 19.4084 5.81806 21.8184C5.81806 24.2283 7.77169 26.1819 10.1816 26.1819H11.6361C13.2427 26.1819 14.5452 27.4843 14.5452 29.091C14.5452 30.6976 13.2427 32 11.6361 32H10.1816Z" fill="#64C3FF"></path>
<path d="M29.0913 26.1797H10.4735C8.86687 26.1797 7.56445 27.4821 7.56445 29.0887V29.0887C7.56445 30.6954 8.86687 31.9978 10.4735 31.9978H29.0913C30.6979 31.9978 32.0004 30.6954 32.0004 29.0887C32.0004 27.4821 30.6979 26.1797 29.0913 26.1797Z" fill="#FFDC46"></path>
<path d="M31.999 29.0899V11.6356C31.999 10.029 30.6966 8.72656 29.09 8.72656C27.4834 8.72656 26.181 10.029 26.181 11.6356V29.0899C26.181 30.6965 27.4834 31.999 29.09 31.999C30.6966 31.999 31.999 30.6965 31.999 29.0899Z" fill="#FA5A8C"></path>
<path d="M26.1799 11.6346V10.1799C26.1799 9.85537 26.1445 9.53903 26.0772 9.23463C25.7067 7.55722 25.3736 5.44581 26.5741 4.2171C27.5843 3.18318 29.26 3.08505 30.1014 4.26048C31.2953 5.92856 31.998 7.97221 31.998 10.1799V11.6346C31.998 13.2412 30.6956 14.5435 29.089 14.5435C27.4823 14.5435 26.1799 13.2412 26.1799 11.6346Z" fill="#14F0C8"></path>
<path d="M17.4538 14.5457C17.4538 12.9391 16.1514 11.6367 14.5448 11.6367C12.9382 11.6367 11.6357 12.9391 11.6357 14.5457V14.5458C11.6357 16.1524 12.9382 17.4548 14.5448 17.4548C16.1514 17.4548 17.4538 16.1524 17.4538 14.5458V14.5457Z" fill="#50AAE6"></path>
<path d="M31.9977 29.0887C31.9977 27.4821 30.6953 26.1797 29.0887 26.1797C27.4821 26.1797 26.1797 27.4821 26.1797 29.0887V29.0887C26.1797 30.6954 27.4821 31.9978 29.0887 31.9978C30.6953 31.9978 31.9977 30.6954 31.9977 29.0887V29.0887Z" fill="#DC5078"></path>
<path d="M13.3825 29.0887C13.3825 27.4821 12.0801 26.1797 10.4735 26.1797C8.86687 26.1797 7.56445 27.4821 7.56445 29.0887V29.0887C7.56445 30.6954 8.86687 31.9978 10.4735 31.9978C12.0801 31.9978 13.3825 30.6954 13.3825 29.0887V29.0887Z" fill="#E1BE3C"></path>
<path d="M31.9977 11.6356C31.9977 10.029 30.6953 8.72656 29.0887 8.72656C27.4821 8.72656 26.1797 10.029 26.1797 11.6356V11.6356C26.1797 13.2422 27.4821 14.5447 29.0887 14.5447C30.6953 14.5447 31.9977 13.2422 31.9977 11.6356V11.6356Z" fill="#14DCB4"></path>
<path d="M44.3296 25.9987V8.07869H48.1696V22.5427H56.2848V25.9987H44.3296ZM65.1402 26.2547C63.7578 26.2547 62.5205 25.956 61.4282 25.3587C60.353 24.7443 59.4997 23.908 58.8682 22.8499C58.2538 21.7918 57.9466 20.58 57.9466 19.2147C57.9466 17.8494 58.2538 16.6462 58.8682 15.6051C59.4997 14.547 60.353 13.7107 61.4282 13.0963C62.5205 12.4819 63.7578 12.1747 65.1402 12.1747C66.5055 12.1747 67.7258 12.4819 68.801 13.0963C69.8933 13.7107 70.7466 14.547 71.361 15.6051C71.9754 16.6462 72.2826 17.8494 72.2826 19.2147C72.2826 20.58 71.9754 21.7918 71.361 22.8499C70.7466 23.908 69.8933 24.7443 68.801 25.3587C67.7258 25.956 66.5055 26.2547 65.1402 26.2547ZM65.1402 23.0803C65.8058 23.0803 66.4031 22.9182 66.9322 22.5939C67.4613 22.2526 67.8709 21.7918 68.161 21.2115C68.4682 20.6142 68.6218 19.9486 68.6218 19.2147C68.6218 18.4638 68.4682 17.7982 68.161 17.2179C67.8709 16.6206 67.4613 16.1598 66.9322 15.8355C66.4031 15.4942 65.8058 15.3235 65.1402 15.3235C64.4575 15.3235 63.8517 15.4942 63.3226 15.8355C62.7935 16.1768 62.3754 16.6376 62.0682 17.2179C61.761 17.7982 61.6159 18.4638 61.633 19.2147C61.6159 19.9486 61.761 20.6142 62.0682 21.2115C62.3754 21.7918 62.7935 22.2526 63.3226 22.5939C63.8517 22.9182 64.4575 23.0803 65.1402 23.0803ZM76.412 31.8867L79.3816 24.9235L79.4328 27.0227L72.828 12.4563H76.9496L80.252 20.2643C80.3886 20.5544 80.5166 20.8958 80.636 21.2883C80.7726 21.6638 80.8835 22.0307 80.9688 22.3891L80.3544 22.6451C80.4568 22.355 80.5763 22.0222 80.7128 21.6467C80.8494 21.2712 80.9859 20.8702 81.1224 20.4435L83.964 12.4563H88.1112L82.428 25.9987L80.0984 31.8867H76.412ZM96.1152 26.2547C94.7328 26.2547 93.4955 25.956 92.4032 25.3587C91.328 24.7443 90.4747 23.908 89.8432 22.8499C89.2288 21.7918 88.9216 20.58 88.9216 19.2147C88.9216 17.8494 89.2288 16.6462 89.8432 15.6051C90.4747 14.547 91.328 13.7107 92.4032 13.0963C93.4955 12.4819 94.7328 12.1747 96.1152 12.1747C97.4806 12.1747 98.7008 12.4819 99.776 13.0963C100.868 13.7107 101.722 14.547 102.336 15.6051C102.95 16.6462 103.258 17.8494 103.258 19.2147C103.258 20.58 102.95 21.7918 102.336 22.8499C101.722 23.908 100.868 24.7443 99.776 25.3587C98.7008 25.956 97.4806 26.2547 96.1152 26.2547ZM96.1152 23.0803C96.7808 23.0803 97.3782 22.9182 97.9072 22.5939C98.4363 22.2526 98.8459 21.7918 99.136 21.2115C99.4432 20.6142 99.5968 19.9486 99.5968 19.2147C99.5968 18.4638 99.4432 17.7982 99.136 17.2179C98.8459 16.6206 98.4363 16.1598 97.9072 15.8355C97.3782 15.4942 96.7808 15.3235 96.1152 15.3235C95.4326 15.3235 94.8267 15.4942 94.2976 15.8355C93.7686 16.1768 93.3504 16.6376 93.0432 17.2179C92.736 17.7982 92.591 18.4638 92.608 19.2147C92.591 19.9486 92.736 20.6142 93.0432 21.2115C93.3504 21.7918 93.7686 22.2526 94.2976 22.5939C94.8267 22.9182 95.4326 23.0803 96.1152 23.0803ZM106.018 25.9987V7.05469H109.653V25.9987H106.018ZM114.862 31.8867L117.832 24.9235L117.883 27.0227L111.278 12.4563H115.4L118.702 20.2643C118.839 20.5544 118.967 20.8958 119.086 21.2883C119.223 21.6638 119.334 22.0307 119.419 22.3891L118.804 22.6451C118.907 22.355 119.026 22.0222 119.163 21.6467C119.299 21.2712 119.436 20.8702 119.572 20.4435L122.414 12.4563H126.561L120.878 25.9987L118.548 31.8867H114.862Z" fill="#2B251F"></path>
</g>
<defs>
<clipPath id="clip0_1429_20908">
<rect width="127" height="32" fill="white"></rect>
</clipPath>
</defs>
</svg>