<svg width="94" height="21" viewBox="0 0 94 21" fill="none" xmlns="http://www.w3.org/2000/svg">
<path d="M7.27222 6.36356C7.27222 2.84906 10.1212 0 13.6357 0C17.1501 0 19.9992 2.84906 19.9992 6.36356V7.27265C19.9992 8.27679 19.1852 9.0908 18.181 9.0908C17.1769 9.0908 16.3629 8.27679 16.3629 7.27265V6.36356C16.3629 4.85735 15.1419 3.63632 13.6357 3.63632C12.1295 3.63632 10.9085 4.85735 10.9085 6.36356V9.09081C10.9085 10.0949 10.0945 10.909 9.09036 10.909C8.08623 10.909 7.27222 10.0949 7.27222 9.09081V6.36356Z" fill="#14F0C8"></path>
<path d="M6.36347 19.9998C2.84902 19.9998 1.68985e-07 17.1507 0 13.6362C-1.68985e-07 10.1217 2.84902 7.27268 6.36347 7.27268H9.09067C10.0948 7.27268 10.9085 8.08667 10.9085 9.09081C10.9085 10.0949 10.0945 10.909 9.09036 10.909L6.36347 10.909C4.85728 10.909 3.63627 12.13 3.63627 13.6362C3.63627 15.1425 4.85728 16.3635 6.36347 16.3635H7.27253C8.27667 16.3635 9.09068 17.1775 9.09068 18.1816C9.09068 19.1858 8.27667 19.9998 7.27253 19.9998H6.36347Z" fill="#64C3FF"></path>
<path d="M4.72766 18.1818C4.72766 17.1777 5.54167 16.3637 6.54581 16.3637H18.1819C19.186 16.3637 20 17.1777 20 18.1818C20 19.186 19.186 20 18.1819 20H6.54581C5.54167 20 4.72766 19.186 4.72766 18.1818Z" fill="#FFDC46"></path>
<path d="M18.1815 5.45475C19.1857 5.45475 19.9992 6.26851 19.9992 7.27265L20 18.1818C20 19.186 19.186 20 18.1819 20C17.1777 20 16.3634 19.186 16.3634 18.1819L16.3629 7.27265C16.3629 6.26852 17.1774 5.45475 18.1815 5.45475Z" fill="#FA5A8C"></path>
<path d="M16.3629 7.27265V6.36356C16.3629 6.16067 16.3405 5.96313 16.2985 5.77288C16.0669 4.72449 15.8587 3.40485 16.609 2.63691C17.2404 1.99071 18.2877 1.92938 18.8135 2.66402C19.5597 3.70657 19.9992 4.9837 19.9992 6.36356V7.27265C19.9992 8.27679 19.1852 9.0908 18.181 9.0908C17.1769 9.0908 16.3629 8.27679 16.3629 7.27265Z" fill="#14F0C8"></path>
<path d="M7.27222 9.09081C7.27222 8.08667 8.08654 7.27268 9.09067 7.27268C10.0948 7.27268 10.9085 8.08667 10.9085 9.09081C10.9085 10.0949 10.0945 10.909 9.09036 10.909C8.08623 10.909 7.27222 10.0949 7.27222 9.09081Z" fill="#50AAE6"></path>
<path d="M16.3634 18.1819C16.3634 17.1777 17.1764 16.3637 18.1806 16.3637C19.1847 16.3637 19.9987 17.1777 19.9987 18.1818C19.9987 19.186 19.1847 20 18.1806 20C17.1764 20 16.3634 19.186 16.3634 18.1819Z" fill="#DC5078"></path>
<path d="M4.72766 18.1818C4.72766 17.1777 5.54167 16.3637 6.54581 16.3637C7.54993 16.3637 8.36393 17.1777 8.36393 18.1818C8.36393 19.186 7.54994 20 6.54581 20C5.54167 20 4.72766 19.186 4.72766 18.1818Z" fill="#E1BE3C"></path>
<path d="M16.3629 7.27265C16.3629 6.26852 17.1774 5.45475 18.1815 5.45475C19.1857 5.45475 19.9992 6.26851 19.9992 7.27265C19.9992 8.27679 19.1852 9.0908 18.181 9.0908C17.1769 9.0908 16.3629 8.27679 16.3629 7.27265Z" fill="#14DCB4"></path>
<path d="M56.5967 12.8838C56.7092 13.1228 56.8147 13.4042 56.9131 13.7275C56.9426 13.8087 56.9675 13.8905 56.9941 13.9707C57.1004 13.6762 57.2082 13.3634 57.3145 13.0312L59.6553 6.4502H63.0723L58.3896 17.6084L56.4707 22.459H53.4336L55.5195 17.5654L50.4805 6.4502H53.876L56.5967 12.8838ZM88.2764 12.8838C88.3888 13.1228 88.4944 13.4042 88.5928 13.7275C88.6223 13.8087 88.6472 13.8905 88.6738 13.9707C88.7801 13.6763 88.8869 13.3633 88.9932 13.0312L91.335 6.4502H94.752L90.0693 17.6084L88.1494 22.459H85.1123L87.1992 17.5654L82.1602 6.4502H85.5557L88.2764 12.8838ZM44.1465 6.21875C45.2712 6.2188 46.2764 6.47148 47.1621 6.97754C48.062 7.48375 48.7653 8.17311 49.2715 9.04492C49.7776 9.90259 50.0312 10.8938 50.0312 12.0186C50.0312 13.1434 49.7776 14.1419 49.2715 15.0137C48.7653 15.8855 48.062 16.5748 47.1621 17.0811C46.2764 17.5731 45.2712 17.8193 44.1465 17.8193C43.0076 17.8193 41.9878 17.5732 41.0879 17.0811C40.202 16.5748 39.4988 15.8855 38.9785 15.0137C38.4724 14.1419 38.2197 13.1434 38.2197 12.0186C38.2198 10.8938 38.4724 9.90258 38.9785 9.04492C39.4988 8.17311 40.202 7.48375 41.0879 6.97754C41.9878 6.47139 43.0076 6.21875 44.1465 6.21875ZM69.667 6.21875C70.7917 6.21876 71.7969 6.47151 72.6826 6.97754C73.5825 7.48374 74.2858 8.17313 74.792 9.04492C75.2982 9.90261 75.5517 10.8937 75.5518 12.0186C75.5518 13.1435 75.2982 14.1419 74.792 15.0137C74.2858 15.8855 73.5826 16.5748 72.6826 17.0811C71.7969 17.573 70.7917 17.8193 69.667 17.8193C68.528 17.8193 67.5083 17.5732 66.6084 17.0811C65.7225 16.5748 65.0193 15.8855 64.499 15.0137C63.9929 14.1419 63.7402 13.1433 63.7402 12.0186C63.7403 10.8938 63.9929 9.90256 64.499 9.04492C65.0193 8.17311 65.7225 7.48375 66.6084 6.97754C67.5083 6.47133 68.528 6.21875 69.667 6.21875ZM30.1641 14.7607H36.8496V17.6084H27V2.84375H30.1641V14.7607ZM80.8213 17.6084H77.8262V2H80.8213V17.6084ZM44.1465 8.8125C43.584 8.8125 43.0843 8.95315 42.6484 9.23438C42.2125 9.5156 41.8683 9.89593 41.6152 10.374C41.3623 10.852 41.2428 11.4001 41.2568 12.0186C41.2428 12.6232 41.3621 13.1719 41.6152 13.6641C41.8683 14.142 42.2127 14.5215 42.6484 14.8027C43.0843 15.0699 43.584 15.2041 44.1465 15.2041C44.6947 15.204 45.1872 15.0698 45.623 14.8027C46.0587 14.5216 46.3958 14.1419 46.6348 13.6641C46.8879 13.1719 47.0146 12.6232 47.0146 12.0186C47.0146 11.4 46.8878 10.852 46.6348 10.374C46.3958 9.88195 46.0588 9.50154 45.623 9.23438C45.1872 8.9532 44.6947 8.81256 44.1465 8.8125ZM69.667 8.8125C69.1045 8.8125 68.6049 8.95315 68.1689 9.23438C67.7331 9.51559 67.3888 9.896 67.1357 10.374C66.8828 10.852 66.7633 11.4001 66.7773 12.0186C66.7633 12.6232 66.8826 13.1719 67.1357 13.6641C67.3888 14.142 67.7332 14.5215 68.1689 14.8027C68.6049 15.0699 69.1045 15.2041 69.667 15.2041C70.2154 15.2041 70.7077 15.0699 71.1436 14.8027C71.5793 14.5215 71.9173 14.1421 72.1562 13.6641C72.4093 13.1719 72.5352 12.6231 72.5352 12.0186C72.5351 11.4002 72.4091 10.8519 72.1562 10.374C71.9172 9.88188 71.5794 9.50154 71.1436 9.23438C70.7077 8.95316 70.2154 8.81252 69.667 8.8125Z" fill="black"></path>
</svg>