<svg width="20" height="21" viewBox="0 0 20 21" fill="none" xmlns="http://www.w3.org/2000/svg">
<path d="M7.27222 6.36356C7.27222 2.84906 10.1212 0 13.6357 0C17.1501 0 19.9992 2.84906 19.9992 6.36356V7.27265C19.9992 8.27679 19.1852 9.0908 18.181 9.0908C17.1769 9.0908 16.3629 8.27679 16.3629 7.27265V6.36356C16.3629 4.85735 15.1419 3.63632 13.6357 3.63632C12.1295 3.63632 10.9085 4.85735 10.9085 6.36356V9.09081C10.9085 10.0949 10.0945 10.909 9.09036 10.909C8.08623 10.909 7.27222 10.0949 7.27222 9.09081V6.36356Z" fill="#14F0C8"></path>
<path d="M6.36347 19.9998C2.84902 19.9998 1.68985e-07 17.1507 0 13.6362C-1.68985e-07 10.1217 2.84902 7.27268 6.36347 7.27268H9.09067C10.0948 7.27268 10.9085 8.08667 10.9085 9.09081C10.9085 10.0949 10.0945 10.909 9.09036 10.909L6.36347 10.909C4.85728 10.909 3.63627 12.13 3.63627 13.6362C3.63627 15.1425 4.85728 16.3635 6.36347 16.3635H7.27253C8.27667 16.3635 9.09068 17.1775 9.09068 18.1816C9.09068 19.1858 8.27667 19.9998 7.27253 19.9998H6.36347Z" fill="#64C3FF"></path>
<path d="M4.72766 18.1818C4.72766 17.1777 5.54167 16.3637 6.54581 16.3637H18.1819C19.186 16.3637 20 17.1777 20 18.1818C20 19.186 19.186 20 18.1819 20H6.54581C5.54167 20 4.72766 19.186 4.72766 18.1818Z" fill="#FFDC46"></path>
<path d="M18.1815 5.45475C19.1857 5.45475 19.9992 6.26851 19.9992 7.27265L20 18.1818C20 19.186 19.186 20 18.1819 20C17.1777 20 16.3634 19.186 16.3634 18.1819L16.3629 7.27265C16.3629 6.26852 17.1774 5.45475 18.1815 5.45475Z" fill="#FA5A8C"></path>
<path d="M16.3629 7.27265V6.36356C16.3629 6.16067 16.3405 5.96313 16.2985 5.77288C16.0669 4.72449 15.8587 3.40485 16.609 2.63691C17.2404 1.99071 18.2877 1.92938 18.8135 2.66402C19.5597 3.70657 19.9992 4.9837 19.9992 6.36356V7.27265C19.9992 8.27679 19.1852 9.0908 18.181 9.0908C17.1769 9.0908 16.3629 8.27679 16.3629 7.27265Z" fill="#14F0C8"></path>
<path d="M7.27222 9.09081C7.27222 8.08667 8.08654 7.27268 9.09067 7.27268C10.0948 7.27268 10.9085 8.08667 10.9085 9.09081C10.9085 10.0949 10.0945 10.909 9.09036 10.909C8.08623 10.909 7.27222 10.0949 7.27222 9.09081Z" fill="#50AAE6"></path>
<path d="M16.3634 18.1819C16.3634 17.1777 17.1764 16.3637 18.1806 16.3637C19.1847 16.3637 19.9987 17.1777 19.9987 18.1818C19.9987 19.186 19.1847 20 18.1806 20C17.1764 20 16.3634 19.186 16.3634 18.1819Z" fill="#DC5078"></path>
<path d="M4.72766 18.1818C4.72766 17.1777 5.54167 16.3637 6.54581 16.3637C7.54993 16.3637 8.36393 17.1777 8.36393 18.1818C8.36393 19.186 7.54994 20 6.54581 20C5.54167 20 4.72766 19.186 4.72766 18.1818Z" fill="#E1BE3C"></path>
<path d="M16.3629 7.27265C16.3629 6.26852 17.1774 5.45475 18.1815 5.45475C19.1857 5.45475 19.9992 6.26851 19.9992 7.27265C19.9992 8.27679 19.1852 9.0908 18.181 9.0908C17.1769 9.0908 16.3629 8.27679 16.3629 7.27265Z" fill="#14DCB4"></path>
</svg>